#N canvas 355 113 260 282 10;
#X floatatom 80 61 5 0 0 0 - - -;
#X obj 80 209 dac~ 1 2;
#X obj 81 10 loadbang;
#X msg 79 36 100;
#X obj 80 87 wavetable1;
#X connect 0 0 4 0;
#X connect 2 0 3 0;
#X connect 3 0 0 0;
#X connect 4 0 1 0;
#X connect 4 0 1 1;
