#N canvas 605 244 388 332 10;
#X obj 191 170 tabread4~ wavetable;
#X obj 191 125 phasor~;
#X obj 191 191 outlet~;
#X obj 191 101 inlet;
#X obj 191 147 *~ 512;
#N canvas 0 0 450 300 (subpatch) 0;
#X array wavetable 512 float 3;
#A
-0.06279051952931326
-0.12470984481409877
-0.18553558904506348
-0.2450609616516246
-0.3030948477099748
-0.35946178715086013
-0.414001862925634
-0.4665705070639257
-0.5170382332792283
-0.5652903044588787
-0.6112263430204126
-0.6547598917347323
-0.6958179322146238
-0.7343403678511167
-0.7702794775553796
-0.8035993462352202
-0.8342752775069847
-0.862293193719494
-0.8876490279497586
-0.9103481122233367
-0.9304045658175345
-0.9478406871251446
-0.9626863521914967
-0.974978422689448
-0.9847601657664418
-0.9920806878854704
-0.9969943844880713
-0.9995604070325076
-0.9998421487039966
-0.9979067498560554
-0.9938246240224194
-0.987669005137098
-0.9795155164154455
-0.9694417611810233
-0.9575269357708346
-0.9438514645145365
-0.9284966566606703
-0.9115443850140849
-0.8930767859527271
-0.8731759804080651
-0.8519238153207898
-0.8294016250213622
-0.8056900119326089
-0.7808686459482522
-0.7550160818061791
-0.7282095937478085
-0.7005250267343273
-0.6720366634763126
-0.6428171065246175
-0.6129371746668941
-0.582465812875151
-0.5514700150548079
-0.5200147588543492
-0.4881629518064213
-0.45597538808568716
-0.42351071518550026
-0.39082540983423136
-0.35797376249244167
-0.3250078697938306
-0.29197763431568907
-0.25893077108819534
-0.22591282027613574
-0.19296716549123782
-0.16013505721814775
-0.12745564086199523
-0.09496598895028178
-0.06270113704645419
-0.030694122956788337
0.0010239711639212134
0.032423974178996125
0.06347857915718896
0.09416229470683717
0.12445139476155193
0.15432386710133458
0.18375936087300226
0.21273913335452313
0.2412459961893935
0.26926426129950054
0.2967796866680152
0.3237794221677904
0.3502519555954138
0.3761870590565744
0.401575735834643
0.4264101678613832
0.4506836638964719
0.47439060851097176
0.49752641195908126
0.5200874610123378
0.542071070820962
0.5634754378581661
0.5842995939950015
0.6045433617456455
0.6242073107159168
0.6432927152812249
0.6618015135140795
0.6797362673757061
0.6971001241811575
0.7138967793426336
0.7301304403914101
0.7458057922748866
0.7609279639217217
0.7755024960648262
0.789535310309121
0.8030326794283902
0.8160011988732758
0.8284477594704511
0.8403795212912145
0.8518038886662239
0.8627284863217509
0.8731611366117
0.8831098378186978
0.8925827434967706
0.901588142827509
0.9101344419611391
0.9182301463135677
0.9258838437902457
0.933104188907573
0.9398998877825496
0.9462796839614532
0.9522523450584727
0.9578266501754579
0.9630113780742408
0.9678152960733296
0.9722471496411892
0.9763156526587653
0.9800294783244045
0.9833972506748465
0.986427536696518
0.989128839001942
0.9915095890466754
0.9935781408628075
0.9953427652856862
0.9968116446511796
0.9979928679414333
0.9988944263577402
0.999524209299794
0.9998900007312606
0.9999994759122534
0.9998601984799549
0.9994796178592714
0.9988650669860487
0.9980237603260104
0.9969627921732018
0.9956891352123374
0.9942096393300481
0.9925310306606195
0.9906599108523856
0.9886027565415084
0.9863659190204275
0.9839556240887944
0.9813779720752382
0.9786389380188092
0.9757443719994491
0.9726999996073096
0.969511422541212
0.9661841193269864
0.9627234461468674
0.9591346377715457
0.9554228085868798
0.9515929537076663
0.9476499501712478
0.9435985582041
0.9394434225548945
0.9351890738878706
0.9308399302306747
0.9264002984711412
0.9218743758977879
0.9172662517790839
0.9125799089768339
0.9078192255892759
0.9029879766197526
0.8980898356670565
0.8931283766337788
0.888107075449219
0.8830293118036208
0.8778983708907049
0.8727174451556609
0.8674896360459465
0.8622179557624184
0.8569053290084829
0.8515545947351209
0.8461685078797851
0.840749741097321
0.835300886481188
0.8298244572734016
0.8243228895617281
0.8187985439627901
0.8132537072898443
0.8076905942041049
0.802111348848581
0.7965180464634918
0.7909126949824132
0.7852972366083923
0.7796735493693465
0.774043448652137
0.7684086887147799
0.7627709641763202
0.7571319114839623
0.7514931103571022
0.7458560852079672
0.7402223065386188
0.7345931923141215
0.728970109311728
0.7233543744459707
0.7177472560695922
0.7121499752502819
0.706563707023221
0.7009895816194712
0.6954286856702692
0.6898820633873202
0.684350717719206
0.67883561148405
0.6733376684785987
0.6678577745639034
0.6623967787278026
0.656955494124421
0.6515346990909187
0.6461351381417344
0.6407575229405864
0.6354025332504942
0.6300708178621075
0.6247629955006282
0.6194796557116239
0.6142213597260364
0.6089886413046978
0.6037820075626668
0.5986019397737079
0.5934488941552378
0.5883233026340627
0.5832255735932412
0.5781560926003989
0.5731152231178298
0.5681033071947182
0.5631206661418118
0.5581676011888806
0.5532443941252944
0.5483513079240478
0.5434885873495654
0.5386564595496107
0.5338551346316293
0.5290848062238452
0.5243456520214345
0.5196378343180905
0.514961500523298
0.5103167836656254
0.5057038028823435
0.5011226638956752
0.4965734594759748
0.4920562698921348
0.4875711633495109
0.4831181964156534
0.47869741443412983
0.47430885192671596
0.46995253298423256
0.46562847164629606
0.461336672270251
0.4570771298895441
0.4528498305617984
0.44865475170683833
0.4444918624349144
0.4403611238653702
0.4362624894359903
0.4321959052032631
0.42816131013378805
0.42415863638705203
0.42018780958979535
0.41624874910218296
0.41234136827599277
0.40846557470502715
0.40462127046795193
0.4008083523637588
0.3970267121400474
0.3932762367143158
0.38955680838844353
0.3858683050565527
0.38221060040641913
0.3785835641146116
0.3749870620355256
0.3714209563844781
0.3678851059150251
0.3643793660906592
0.3609035892510419
0.35745762477292026
0.35404131922587595
0.3506545165230483
0.3472970580669729
0.3439687828906708
0.340669527794122
0.33739912747625317
0.3341574146625651
0.330944220228525
0.3277593733188417
0.3246027014627432
0.3214740306853694
0.31837318561539146
0.3152999895889674
0.3122542647501376
0.30923583214776623
0.3062445118291253
0.30328012293022205
0.3003424837629629
0.29743141189924777
0.2945467242520843
0.2916882371538096
0.28885576643150623
0.2860491274796938
0.2832681353303785
0.280512604720539
0.27778235015712505
0.27507718597964376
0.2723969264204061
0.26974138566250366
0.2671103778955854
0.2645037173695
0.26192121844586946
0.2593626956476572
0.2568279637067911
0.2543168376099032
0.25182913264224127
0.24936466442981112
0.24692324897980378
0.24450470271936012
0.24210884253272566
0.23973548579684548
0.23738445041544842
0.23505555485166785
0.23274861815924527
0.2304634600123621
0.22819990073414248
0.22595776132387002
0.22373686348295962
0.2215370296397239
0.21935808297297368
0.21719984743448975
0.21506214777040264
0.21294480954151604
0.21084765914260845
0.2087705238207462
0.20671323169264094
0.20467561176108273
0.20265749393047935
0.2006587090215323
0.1986790887850772
0.196718465915118
0.1947766740610808
0.1928535478393148
0.1909489228438656
0.18906263565654527
0.18719452385632415
0.18534442602806697
0.18351218177063663
0.18169763170438727
0.17990061747806796
0.17812098177515803
0.17635856831965374
0.1746132218813262
0.172884788280469
0.17117311439215407
0.16947804815001372
0.1677994385495656
0.16613713565109772
0.1644909905821293
0.16286085553946378
0.1612465837908483
0.1596480296762553
0.15806504860879944
0.1564974970753051
0.15494523263653642
0.15340811392710374
0.1518860006550588
0.15037875360119105
0.1488862346180362
0.14740830662860954
0.1459448336248741
0.14449568066595508
0.1430607138761104
0.141639800442468
0.14023280861253873
0.13883960769151574
0.13746006803936764
0.13609406106773583
0.1347414592366437
0.13340213605102638
0.13207596605708846
0.1307628248384985
0.1294625890124264
0.12817513622543245
0.1269003451492135
0.12563809547621443
0.12438826791511039
0.12315074418616698
0.12192540701648388
0.12071214013512825
0.11951082826816346
0.11832135713357878
0.11714361343612524
0.11597748486206308
0.11482286007382544
0.11367962870460364
0.1125476813528579
0.1114269095767591
0.11031720588856479
0.10921846374893451
0.10813057756118812
0.10705344266551096
0.10598695533310988
0.10493101276032353
0.10388551306269068
0.10285035526897982
0.10182543931518308
0.10081066603847824
0.09980593717116121
0.0988111553345523
0.09782622403287902
0.09685104764713802
0.09588553142893903
0.09492958149433302
0.09398310481762726
0.09304600922518942
0.09211820338924331
0.09119959682165787
0.090290099867732
0.08938962369997695
0.08849808031189842
0.08761538251177986
0.08674144391646921
0.08587617894517033
0.0850195028132412
0.08417133152599998
0.08333158187254107
0.0825001714195618
0.08167701850520193
0.08086204223289684
0.08005516246524573
0.07925629981789624
0.07846537565344633
0.07768231207536498
0.0769070319219323
0.07613945876020045
0.07537951687997617
0.07462713128782578
0.0738822277011037
0.07314473254200533
0.07241457293164488
0.07169167668415916
0.07097597230083785
0.07026738896428131
0.06956585653258598
0.0688713055335586
0.06818366715895942
0.06750287325877524
0.06682885633552263
0.06616154953858178
0.06550088665856171
0.06484680212169716
0.0641992309842772
0.06355810892710667
0.0629233722500003
0.06229495786630982
0.06167280329748477
0.06105684666766695
0.060447026698318855
0.05984328270288659
0.059245554581497016
0.05865378281568996
0.05806790846318502
0.05748787315268372
0.0569136190787068
0.05634508899646698
0.055782226216777184
0.05522497460099445
0.05467327855599959
0.05412708302921262
0.053586333503644105
0.05305097599298248
0.05252095703671726
0.0519962236952984
0.051476723545331546
0.05096240467480939
0.0504532156783791
0.04994910565264565
0.0494500241915113
0.048955921381550895
0.0484667477974231
0.0479824544973176
0.04750299301843798
0.04702831537252041
0.04655837404138794
0.04609312197254035
0.045632512574779543
0.045176499713870256
0.04472503770823609
0.04427808132469062
0.0438355857742036
0.04339750670770213
0.04296380021190652
0.042534422805200846
0.042109331433538046
0.04168848346637935
0.04127183669266796
0.04085934931683677
0.04045097995484999
0.04004668763027861
0.03964643177040933
0.03925017220238696
0.03885786914939013
0.03846948322683991
0.038084975438641526
0.03770430717345866
0.03732744020102029
0.03695433666845994
0.036584959096687006
0.036219270376790194
;
#X coords 0 1 511 -1 70 70 1 0 0;
#X restore 106 131 graph;
#X connect 0 0 2 0;
#X connect 1 0 4 0;
#X connect 3 0 1 0;
#X connect 4 0 0 0;
#X coords 0 -1 1 1 82 108 1 100 100;